<svg xmlns="http://www.w3.org/2000/svg" width="26" height="26" viewBox="0 0 26 26">
  <g fill="#000000" fill-rule="evenodd" transform="translate(-1 -1)">
    <path d="M-1,12 L29,12 C30.1045695,12 31,12.8954305 31,14 C31,15.1045695 30.1045695,16 29,16 L-1,16 C-2.1045695,16 -3,15.1045695 -3,14 C-3,12.8954305 -2.1045695,12 -1,12 Z" transform="rotate(45 14 14)"/>
    <path d="M-1,12 L29,12 C30.1045695,12 31,12.8954305 31,14 C31,15.1045695 30.1045695,16 29,16 L-1,16 C-2.1045695,16 -3,15.1045695 -3,14 C-3,12.8954305 -2.1045695,12 -1,12 Z" transform="rotate(-45 14 14)"/>
  </g>
</svg>
